<svg width="100" height="100" viewBox="0 0 100 100" fill="none" xmlns="http://www.w3.org/2000/svg">
<rect width="100" height="100" fill="#79C3BD"/>
<path d="M21.2002 40L29.8402 14.88H33.6402L42.0802 40H38.8002L36.6802 33.56H26.6802L24.4802 40H21.2002ZM27.4802 31.12H35.8802L31.6802 18.68L27.4802 31.12ZM68.2889 14.88V37.28H79.4889V40H65.1689V14.88H68.2889ZM20.9375 87V61.88H36.4175V64.56H24.0575V73H35.6975V75.68H24.0575V84.28H36.4175V87H20.9375ZM59.3584 87L68.1984 74.52L59.2784 61.88H63.0384L70.2784 72.12L76.9184 61.88H80.7184L71.9984 74.48L81.0384 87H77.1984L69.9184 76.96L63.1184 87H59.3584Z" fill="#FAFAFA"/>
</svg>
